<?xml version="1.0" encoding="UTF-8"?>
<svg width="30px" height="30px" viewBox="0 0 136 197" version="1.1" xmlns="http://www.w3.org/2000/svg" xmlns:xlink="http://www.w3.org/1999/xlink">
    <!-- Generator: Sketch 51.1 (57501) - http://www.bohemiancoding.com/sketch -->
    <title>polyphonic_logo</title>
    <desc>Created with Sketch.</desc>
    <defs></defs>
    <g id="Page-1" stroke="none" stroke-width="1" fill="none" fill-rule="evenodd">
        <path d="M0.577464789,0.0845070423 L60.2284507,0.0845070423 C97.8577465,0.0845070423 119.451831,19.2735211 119.451831,52.7991549 C119.451831,87.648169 97.8577465,107.94 60.2284507,107.94 L25.8061972,107.94 L25.8061972,154.478873 L0.577464789,154.478873 L0.577464789,0.0845070423 Z M25.8061972,23.4642254 L25.8061972,84.5602817 L59.1594366,84.5602817 C82.2501408,84.5602817 95.2921127,74.4143662 95.2921127,53.4608451 C95.2921127,33.1690141 82.2501408,23.4642254 59.1594366,23.4642254 L25.8061972,23.4642254 Z" id="P" fill="#EDE05A" opacity="0.751528533"></path>
        <rect id="Rectangle-2" fill-opacity="0.74000001" fill="#55759E" x="1" y="85" width="25" height="22" rx="3"></rect>
        <rect id="Rectangle-2" fill-opacity="0.74000001" fill="#55759E" x="1" y="0" width="25" height="22" rx="3"></rect>
        <path d="M63.3474131,71.3605744 L63.3474131,100.539917 C63.3474131,111.926977 60.0704974,117.442584 51.2745659,119.755581 C60.0704974,121.890655 63.3474131,127.406262 63.3474131,138.793323 L63.3474131,167.972665 C63.3474131,176.868806 67.486675,180.605185 79.7319914,180.605185 L79.7319914,196.974085 L72.3158139,196.974085 C52.9992583,196.974085 45.4106115,190.746786 45.4106115,174.199964 L45.4106115,137.547863 C45.4106115,130.786796 43.1685113,128.117954 37.9944339,128.117954 L32.6478873,128.117954 L32.6478873,111.215286 L37.9944339,111.215286 C43.1685113,111.215286 45.4106115,108.546444 45.4106115,101.785376 L45.4106115,64.9553529 C45.4106115,48.5864536 52.9992583,42.3591549 72.3158139,42.3591549 L79.7319914,42.3591549 L79.7319914,58.7280543 C67.486675,58.7280543 63.3474131,62.4644335 63.3474131,71.3605744 Z" id="{" fill="#B57CAC"></path>
        <rect id="Rectangle-3" fill="#B57CAC" x="63" y="177" width="73" height="20" rx="7"></rect>
        <rect id="Rectangle" fill-opacity="0.889999986" fill="#E3A94B" x="45" y="173" width="25" height="24" rx="6"></rect>
    </g>
</svg>